<?xml version="1.0" encoding="iso-8859-1"?>
<!-- Uploaded to: SVG Repo, www.svgrepo.com, Generator: SVG Repo Mixer Tools -->
<!DOCTYPE svg PUBLIC "-//W3C//DTD SVG 1.1//EN" "http://www.w3.org/Graphics/SVG/1.1/DTD/svg11.dtd">
<svg fill="#000000" version="1.1" id="Capa_1" xmlns="http://www.w3.org/2000/svg" xmlns:xlink="http://www.w3.org/1999/xlink" 
	 width="800px" height="800px" viewBox="0 0 460.15 460.15"
	 xml:space="preserve">
<g>
	<g>
		<path d="M223.268,83.723c2.493,1.132,4.891,2.396,7.233,3.781c5.137-11.91,12.471-23.093,22.185-32.801
			c11.821-11.814,25.976-20.398,41.385-25.516C277.612,11.291,254.069,0,227.83,0c-27.246,0-51.615,12.154-68.132,31.278
			c16.667,4.937,31.949,13.956,44.581,26.595C212.007,65.599,218.347,74.321,223.268,83.723z"/>
		<path d="M391.203,213.792c-2.681,7.52-6.468,14.497-11.201,20.769c1.756,2.344,3.391,4.769,4.894,7.297
			c6.191,4.023,12.026,8.673,17.38,14.015c12.632,12.644,21.648,27.92,26.602,44.587c19.119-16.511,31.27-40.885,31.27-68.139
			c0-27.81-12.627-52.664-32.436-69.18c-5.122,15.324-13.67,29.4-25.428,41.16C398.793,207.769,395.059,210.871,391.203,213.792z"/>
		<path d="M297.506,432.099c-16.76-4.93-32.124-13.958-44.819-26.649c-9.935-9.942-17.421-21.412-22.572-33.631
			c-5.244,12.403-12.858,23.82-22.662,33.631c-11.818,11.813-25.97,20.394-41.378,25.516c16.458,17.9,40.002,29.186,66.24,29.186
			C257.992,460.15,281.1,449.351,297.506,432.099z"/>
		<path d="M31.272,300.45c4.939-16.667,13.96-31.951,26.597-44.578c10.466-10.472,22.758-18.398,36.135-23.644
			c-14.593-5.186-28.016-13.491-39.297-24.767c-11.814-11.813-20.398-25.968-25.513-41.378
			c-17.901,16.464-29.19,40.008-29.19,66.237C-0.004,259.566,12.15,283.932,31.272,300.45z"/>
		<path d="M243.489,97.085c9.634,8.756,17.08,19.837,21.428,32.384c13.545-12.263,31.338-19.879,50.91-20.271
			c0.537-0.006,1.059-0.076,1.595-0.076c2.164,0,4.28,0.15,6.389,0.322c2.629,0.21,5.218,0.555,7.771,1.02
			c13.188,2.418,25.238,8.099,35.245,16.248c2.974,2.427,5.727,5.11,8.323,7.947c2.452,2.675,4.753,5.479,6.824,8.472
			c8.708,12.629,13.846,27.912,13.846,44.393c0,0.18-0.023,0.358-0.032,0.539c8.789-10.227,14.92-21.925,18.371-34.242
			c0.721-2.621,1.362-5.26,1.847-7.923c0.497-2.699,0.882-5.424,1.143-8.153c2.344-25.718-6.304-52.255-25.988-71.941
			c-17.589-17.587-40.647-26.377-63.694-26.377c-2.224,0-4.432,0.154-6.641,0.314c-2.856,0.21-5.702,0.555-8.531,1.036
			c-2.705,0.463-5.39,1.058-8.062,1.767c-14.812,3.939-28.826,11.64-40.443,23.259C254.605,74.995,247.882,85.687,243.489,97.085z"
			/>
		<path d="M316.412,419.964c2.926,0.36,5.855,0.581,8.785,0.649c0.765,0.016,1.526,0.116,2.284,0.116
			c23.05,0,46.104-8.801,63.693-26.381c18.575-18.574,27.23-43.229,26.192-67.562c-0.111-2.793-0.364-5.574-0.741-8.344
			c-0.385-2.757-0.882-5.494-1.511-8.215c-3.266-14.062-9.942-27.463-20.049-38.948c0.444,3.383,0.77,6.809,0.77,10.304
			c0,14.391-3.972,27.848-10.764,39.453c-1.779,3.049-3.76,5.971-5.92,8.74c-2.284,2.913-4.744,5.666-7.405,8.219
			c-9.521,9.169-21.344,15.913-34.5,19.364c-2.513,0.657-5.073,1.194-7.683,1.595c-2.568,0.404-5.165,0.673-7.802,0.821
			c-1.442,0.084-2.87,0.221-4.324,0.221c-35.955,0-66.247-24.35-75.46-57.391c-1.972,6.027-3.334,12.207-4.012,18.466
			c0.293,3.17,0.469,6.356,0.469,9.586c0,3.227-0.176,6.416-0.469,9.59c2.108,19.757,10.688,38.961,25.836,54.101
			c12.636,12.627,28.104,20.654,44.351,24.213C310.874,419.15,313.644,419.627,316.412,419.964z"/>
		<path d="M68.97,266.973c-12.351,12.343-20.27,27.406-23.942,43.256c-0.627,2.721-1.13,5.458-1.509,8.215
			c-0.376,2.77-0.625,5.551-0.745,8.344c-1.046,24.317,7.622,48.987,26.196,67.562c17.583,17.58,40.64,26.381,63.69,26.381
			c2.214,0,4.438-0.16,6.642-0.32c2.855-0.209,5.707-0.554,8.54-1.042c2.711-0.461,5.394-1.059,8.065-1.764
			c14.812-3.943,28.825-11.638,40.445-23.263c15.198-15.192,23.792-34.48,25.858-54.313c0.465-4.488,0.525-8.992,0.323-13.488
			c-0.197,0.276-0.419,0.537-0.613,0.813c-14.256,19.732-37.381,32.637-63.524,32.637c-5.244,0-10.365-0.546-15.326-1.527
			c-2.591-0.521-5.14-1.15-7.632-1.924c-2.557-0.781-5.069-1.687-7.52-2.721c-9.299-3.939-17.679-9.63-24.744-16.651
			c-2.3-2.283-4.412-4.736-6.412-7.281c-1.902-2.424-3.635-4.953-5.244-7.59c-7.271-11.886-11.535-25.792-11.535-40.72
			c0-9.598,1.821-18.774,4.995-27.282C79.309,257.863,73.907,262.035,68.97,266.973z"/>
		<path d="M40.782,147.846c0.459,2.709,1.058,5.396,1.763,8.065c3.943,14.812,11.646,28.826,23.263,40.443
			c12.465,12.467,27.687,20.42,43.703,24.055c6.915-5.536,14.787-9.891,23.321-12.85c-12.601-13.922-20.355-32.306-20.355-52.514
			c0-3.29,0.269-6.514,0.667-9.702c0.331-2.623,0.778-5.199,1.357-7.732c0.591-2.569,1.296-5.08,2.128-7.544
			c2.02-5.983,4.743-11.618,8.065-16.861c1.947-3.064,4.056-5.999,6.397-8.756c2.182-2.575,4.555-4.959,7.041-7.237
			c13.942-12.733,32.422-20.568,52.746-20.568c3.242,0,6.432,0.261,9.572,0.644c-2.246-2.863-4.625-5.669-7.266-8.306
			c-12.347-12.347-27.411-20.27-43.26-23.942c-2.717-0.629-5.454-1.132-8.211-1.507c-2.771-0.378-5.55-0.629-8.346-0.747
			c-1.286-0.054-2.575-0.181-3.871-0.181c-23.049,0-46.105,8.794-63.688,26.377c-19.282,19.28-27.917,45.124-26.066,70.331
			C39.95,142.171,40.295,145.013,40.782,147.846z"/>
		<path d="M232.285,108.084c-0.066-0.054-0.129-0.116-0.193-0.172c-2.149-1.883-4.404-3.643-6.796-5.222
			c-1.116-0.727-2.263-1.411-3.415-2.078c-3.244-1.855-6.658-3.406-10.231-4.665c-6.514-2.3-13.493-3.618-20.789-3.618
			c-19.947,0-37.71,9.395-49.207,23.962c-2.008,2.541-3.829,5.244-5.43,8.083c-1.749,3.11-3.21,6.382-4.42,9.79
			c-0.101,0.281-0.211,0.563-0.315,0.848c-0.848,2.503-1.575,5.056-2.104,7.692c-0.533,2.669-0.839,5.41-1.02,8.181
			c-0.092,1.383-0.21,2.755-0.21,4.152c0,19.532,8.989,37,23.033,48.508c2.368-0.218,4.765-0.361,7.199-0.361
			c6.051,0,11.924,0.751,17.591,2.066c1.655,0.385,3.316,0.784,4.929,1.271c0.387,0.118,0.771,0.218,1.154,0.336
			c0.283-0.617,0.583-1.23,0.89-1.835c0.24-0.487,0.455-0.99,0.705-1.469c1.563-2.897,3.385-5.626,5.378-8.217
			c1.413-1.846,2.912-3.627,4.531-5.302c2.104-2.183,4.38-4.182,6.789-6.033c1.781-1.369,3.645-2.643,5.566-3.812
			c1.13-0.683,2.26-1.348,3.43-1.961c2.717-1.411,5.558-2.623,8.494-3.619c3.152-1.066,6.406-1.868,9.76-2.42
			c0.996-0.165,1.992-0.345,3.005-0.463c2.238-0.249,4.5-0.399,6.801-0.399c0.573,0,1.126,0.068,1.691,0.084
			c0.521,0.021,1.046,0.059,1.574,0.08c0.689-3.326,1.663-6.546,2.766-9.708c2.256-6.472,5.262-12.585,9.049-18.16
			c-2.02-10.929-6.857-20.859-13.762-29.024C236.749,112.278,234.585,110.112,232.285,108.084z"/>
		<path d="M361.184,142.698c-2.517-2.458-5.246-4.713-8.144-6.721c-3.206-2.224-6.624-4.136-10.227-5.738
			c-4.877-2.166-10.075-3.699-15.509-4.561c-2.645-0.427-5.33-0.684-8.071-0.764c-0.608-0.016-1.198-0.092-1.812-0.092
			c-2.239,0-4.439,0.122-6.624,0.36c-16.827,1.775-31.69,10.235-41.89,22.67c-3.033,3.705-5.602,7.797-7.742,12.139
			c-2.208,4.504-3.939,9.295-5.029,14.325c0.569,0.18,1.118,0.418,1.671,0.613c0.225,0.078,0.445,0.158,0.661,0.247
			c2.497,0.924,4.938,1.97,7.266,3.192c0.646,0.345,1.291,0.717,1.92,1.086c2.637,1.513,5.142,3.208,7.51,5.085
			c0.164,0.128,0.341,0.235,0.493,0.369c2.132,1.721,4.123,3.603,6.003,5.597c1.968,2.09,3.807,4.304,5.475,6.65
			c2.228,3.14,4.159,6.494,5.771,10.032c7.722-2.551,15.945-3.979,24.517-3.979c14.644,0,28.329,4.114,40.075,11.139
			c2.765,1.657,5.434,3.471,7.979,5.448c1.274,0.988,2.492,2.02,3.703,3.078c1.462-2.144,2.769-4.39,3.963-6.704
			c1.956-3.791,3.511-7.805,4.669-11.986c1.463-5.31,2.308-10.874,2.308-16.645C380.135,169.963,372.857,154.089,361.184,142.698z"
			/>
		<path d="M122.517,230.244c-1.665,1.17-3.274,2.413-4.811,3.731c-1.216,1.05-2.418,2.104-3.55,3.237
			c-2.104,2.092-4.001,4.377-5.799,6.753c-7.917,10.495-12.666,23.499-12.666,37.618c0,14.623,5.063,28.052,13.481,38.715
			c1.83,2.333,3.823,4.517,5.957,6.564c2.308,2.2,4.773,4.232,7.394,6.071c2.829,1.979,5.834,3.711,8.975,5.206
			c2.356,1.126,4.772,2.14,7.279,2.957c2.465,0.821,4.991,1.495,7.582,2.004c3.901,0.766,7.923,1.187,12.044,1.187
			c27.601,0,51.048-17.954,59.402-42.779c1.162-3.442,1.994-7.014,2.545-10.692c-2.994-0.873-5.873-1.995-8.652-3.298
			c-2.176-1.018-4.276-2.16-6.312-3.418c-2.677-1.672-5.229-3.503-7.606-5.543c-2.192-1.888-4.24-3.927-6.147-6.103
			c-0.906-1.026-1.759-2.076-2.593-3.166c-1.984-2.609-3.813-5.33-5.378-8.22c-1.13-2.116-2.112-4.324-2.99-6.56
			c-0.785-2.021-1.46-4.072-2.032-6.18c-0.425-1.551-0.807-3.105-1.114-4.709c-0.569-2.974-0.874-6.039-0.982-9.145
			c-0.024-0.722-0.112-1.435-0.112-2.172c0-0.085,0.016-0.169,0.016-0.261c0.008-1.607,0.112-3.194,0.244-4.783
			c0.086-1.028,0.213-2.038,0.347-3.047c0.099-0.793,0.227-1.583,0.359-2.369c-1.593-0.509-3.218-0.912-4.859-1.294
			c-3.635-0.841-7.388-1.342-11.225-1.515c-0.972-0.05-1.923-0.15-2.905-0.15c-1.152,0-2.276,0.112-3.415,0.172
			c-2.711,0.15-5.386,0.431-7.993,0.92c-3.047,0.565-6.007,1.358-8.876,2.346c-2.194,0.751-4.32,1.625-6.392,2.607
			C128.492,226.453,125.406,228.221,122.517,230.244z"/>
		<path d="M296.784,246.074c-0.044,0.176-0.101,0.353-0.145,0.536c-0.621,2.577-1.402,5.078-2.34,7.515
			c-0.942,2.452-1.983,4.86-3.227,7.153c-1.174,2.168-2.509,4.224-3.931,6.224c-1.667,2.348-3.499,4.568-5.475,6.647
			c-0.537,0.565-1.05,1.143-1.595,1.688c-1.411,1.362-2.886,2.665-4.4,3.907c-0.697,0.569-1.442,1.09-2.164,1.627
			c-2.544,1.871-5.197,3.57-8.011,5.037c-3.206,1.663-6.548,3.09-10.043,4.176c4.377,30.328,30.473,53.728,61.983,53.728
			c0.389,0,0.766-0.048,1.15-0.06c2.681-0.049,5.317-0.293,7.91-0.678c2.609-0.381,5.174-0.901,7.683-1.606
			c5.121-1.411,9.967-3.459,14.475-6.06c3.282-1.884,6.392-4.056,9.262-6.5c2.62-2.225,5.049-4.645,7.265-7.262
			c9.317-10.94,14.968-25.09,14.968-40.547c0-10.227-2.517-19.869-6.885-28.396c-1.226-2.396-2.561-4.721-4.071-6.929
			c-1.479-2.164-3.122-4.188-4.853-6.136c-0.093-0.104-0.185-0.204-0.285-0.32c-1.663-1.848-3.426-3.603-5.29-5.242
			c-1.186-1.058-2.428-2.056-3.702-3.014c-2.269-1.703-4.617-3.29-7.098-4.676c-0.737-0.419-1.503-0.793-2.271-1.182
			c-6.2-3.146-12.984-5.29-20.162-6.216c-2.661-0.347-5.342-0.579-8.095-0.579c-0.108,0-0.208,0.014-0.309,0.014
			c-6.869,0.032-13.461,1.208-19.641,3.29c0.032,0.172,0.061,0.353,0.084,0.525c0.329,2.074,0.546,4.17,0.67,6.3
			c0.036,0.705,0.092,1.411,0.104,2.124c0.017,0.393,0.064,0.777,0.064,1.174c0,1.655-0.116,3.282-0.248,4.905
			C297.91,240.23,297.445,243.192,296.784,246.074z"/>
		<path d="M252.334,189.619c-0.874-0.307-1.771-0.597-2.665-0.848c-0.922-0.26-1.836-0.509-2.77-0.715
			c-0.837-0.18-1.694-0.3-2.553-0.431c-1.458-0.229-2.921-0.379-4.399-0.463c-0.301-0.016-0.598-0.038-0.906-0.05
			c-0.076,0-0.152-0.008-0.244-0.016c-0.461-0.014-0.922-0.068-1.387-0.068c-3.15,0-6.211,0.323-9.179,0.936
			c-3.917,0.808-7.63,2.166-11.115,3.917c-1.619,0.815-3.206,1.701-4.705,2.699c-6.876,4.569-12.403,10.982-15.954,18.517
			c-0.336,0.717-0.673,1.431-0.981,2.164c-0.295,0.719-0.547,1.467-0.804,2.21c-0.008,0.024-0.02,0.046-0.028,0.074
			c-0.345,0.996-0.651,2-0.924,3.027c-0.433,1.609-0.77,3.25-1.03,4.921c-0.172,1.132-0.311,2.274-0.399,3.424
			c-0.088,1.118-0.172,2.244-0.172,3.387c0,0.368,0.046,0.705,0.052,1.073c0.088,3.835,0.659,7.546,1.649,11.085
			c0.252,0.905,0.537,1.803,0.844,2.685c2.729,7.851,7.536,14.743,13.808,19.965c2.959,2.469,6.248,4.505,9.774,6.164
			c0.782,0.372,1.575,0.733,2.393,1.065c0.621,0.253,1.256,0.465,1.894,0.689c2,0.697,4.051,1.286,6.171,1.699
			c2.414,0.469,4.913,0.729,7.447,0.789c0.145,0,0.293,0.032,0.438,0.032c0.276,0.009,0.545,0.04,0.821,0.04
			c0.613,0,1.202-0.072,1.815-0.1c2.192-0.076,4.356-0.309,6.472-0.689c0.473-0.092,0.95-0.185,1.423-0.293
			c2.224-0.484,4.38-1.158,6.472-1.963c0.545-0.205,1.106-0.397,1.64-0.63c1.398-0.597,2.761-1.271,4.087-2.008
			c1.543-0.849,3.006-1.807,4.425-2.837c1.976-1.41,3.847-2.957,5.566-4.66c2.1-2.084,3.987-4.36,5.642-6.809
			c0.161-0.229,0.289-0.474,0.438-0.718c0.513-0.785,0.998-1.583,1.463-2.4c1.29-2.276,2.348-4.677,3.237-7.169
			c0.305-0.89,0.59-1.764,0.85-2.669c0.024-0.068,0.032-0.137,0.053-0.213c0.477-1.671,0.829-3.406,1.105-5.153
			c0.221-1.411,0.381-2.85,0.461-4.309c0.052-0.889,0.137-1.763,0.137-2.668c0-0.95-0.093-1.864-0.145-2.798
			c-0.101-1.555-0.269-3.078-0.517-4.584c-0.213-1.294-0.481-2.569-0.802-3.825c-0.101-0.375-0.192-0.751-0.293-1.13
			c-0.528-1.859-1.142-3.681-1.896-5.432c-0.136-0.331-0.32-0.645-0.465-0.966c-0.93-2.023-1.987-3.979-3.197-5.831
			c-1.764-2.717-3.787-5.256-6.071-7.528c-2.914-2.884-6.212-5.364-9.799-7.38c-0.773-0.441-1.579-0.828-2.376-1.218
			c-0.754-0.369-1.486-0.755-2.269-1.074C254.053,190.198,253.195,189.917,252.334,189.619z"/>
	</g>
</g>
</svg>