<?xml version="1.0" encoding="iso-8859-1"?>
<!-- Uploaded to: SVG Repo, www.svgrepo.com, Generator: SVG Repo Mixer Tools -->
<svg height="800px" width="800px" version="1.1" id="Layer_1" xmlns="http://www.w3.org/2000/svg" xmlns:xlink="http://www.w3.org/1999/xlink" 
	 viewBox="0 0 512 512" xml:space="preserve">
<path style="fill:#CA3486;" d="M511.999,256c0-36.395-19.202-68.302-48.025-86.155c7.75-33.002-1.223-69.132-26.956-94.866
	c-25.732-25.731-61.862-34.705-94.865-26.955C324.302,19.202,292.395,0,256,0s-68.302,19.202-86.156,48.026
	c-33-7.751-69.129,1.223-94.862,26.955c-25.732,25.732-34.706,61.864-26.956,94.866C19.203,187.698,0.001,219.605,0.001,256
	s19.202,68.302,48.024,86.155c-7.75,33.002,1.223,69.132,26.956,94.865c19.777,19.775,45.696,29.663,71.613,29.663
	c7.807,0,15.61-0.914,23.249-2.708C187.698,492.798,219.605,512,256,512s68.302-19.202,86.154-48.024
	c7.64,1.793,15.443,2.708,23.25,2.708c25.916,0,51.84-9.89,71.614-29.663c25.732-25.732,34.706-61.864,26.956-94.865
	C492.797,324.302,511.999,292.395,511.999,256z"/>
<path style="fill:#952967;" d="M511.999,256c0-36.395-19.202-68.302-48.025-86.155c7.75-33.002-1.223-69.132-26.956-94.866
	c-25.732-25.731-61.862-34.705-94.865-26.955C324.302,19.202,292.395,0,256,0c0,56.392,0,458.574,0,512
	c36.395,0,68.302-19.202,86.154-48.024c7.64,1.793,15.443,2.708,23.25,2.708c25.916,0,51.84-9.89,71.614-29.663
	c25.732-25.732,34.706-61.864,26.956-94.865C492.797,324.302,511.999,292.395,511.999,256z"/>
<circle style="fill:#F1D849;" cx="256" cy="256" r="123.247"/>
<path style="fill:#E8BA44;" d="M379.248,256c0,68.068-55.18,123.248-123.248,123.248c0-41.996,0-187.805,0-246.497
	C324.068,132.752,379.248,187.932,379.248,256z"/>
<path style="fill:#FFFFFF;" d="M256,118.427c-75.857,0-137.573,61.715-137.573,137.573S180.143,393.573,256,393.573
	S393.573,331.858,393.573,256S331.857,118.427,256,118.427z M360.182,256c0,21.443-6.515,41.392-17.664,57.976l-69.822-56.171
	V153.163C322.232,161.175,360.182,204.237,360.182,256z M239.304,358.839c-17.477-2.827-33.509-10.016-46.944-20.412l46.944-37.766
	V358.839z M272.696,300.661l46.944,37.766c-13.434,10.396-29.467,17.585-46.944,20.412V300.661z M239.304,153.161v104.643
	l-69.822,56.171c-11.149-16.584-17.664-36.533-17.664-57.976C151.818,204.237,189.768,161.175,239.304,153.161z"/>
<path style="fill:#E9E9EA;" d="M256,118.427v275.147c75.857,0,137.573-61.715,137.573-137.573S331.857,118.427,256,118.427z
	 M272.696,358.839v-58.178l46.944,37.766C306.205,348.822,290.173,356.011,272.696,358.839z M342.518,313.976l-69.822-56.171
	V153.163c49.536,8.014,87.486,51.074,87.486,102.839C360.182,277.443,353.667,297.392,342.518,313.976z"/>
</svg>